<svg width="1024" height="1024" viewBox="0 0 1024 1024" xmlns="http://www.w3.org/2000/svg">
  <defs>
    <linearGradient id="bgGradient" x1="0%" y1="0%" x2="100%" y2="100%">
      <stop offset="0%" style="stop-color:#8b5cf6"/>
      <stop offset="100%" style="stop-color:#ec4899"/>
    </linearGradient>
  </defs>
  
  <!-- Rounded square background -->
  <rect x="0" y="0" width="1024" height="1024" rx="228" ry="228" fill="url(#bgGradient)"/>
  
  <!-- Microphone icon (scaled and centered) -->
  <g transform="translate(262, 200) scale(20.8)">
    <!-- Mic body -->
    <path d="M12 14c1.66 0 3-1.34 3-3V5c0-1.66-1.34-3-3-3S9 3.34 9 5v6c0 1.66 1.34 3 3 3z" fill="white"/>
    <!-- Mic stand -->
    <path d="M17 11c0 2.76-2.24 5-5 5s-5-2.24-5-5H5c0 3.53 2.61 6.43 6 6.92V21h2v-3.08c3.39-.49 6-3.39 6-6.92h-2z" fill="white"/>
  </g>
</svg>
